<?xml version="1.0" standalone="no"?>
<!DOCTYPE svg PUBLIC "-//W3C//DTD SVG 20010904//EN"
 "http://www.w3.org/TR/2001/REC-SVG-20010904/DTD/svg10.dtd">
<svg version="1.0" xmlns="http://www.w3.org/2000/svg"
 width="1000.000000pt" height="1000.000000pt" viewBox="0 0 1000.000000 1000.000000"
 preserveAspectRatio="xMidYMid meet">
<metadata>
Created by potrace 1.11, written by Peter Selinger 2001-2013
</metadata>
<g transform="translate(0.000000,1000.000000) scale(0.100000,-0.100000)"
fill="#000000" stroke="none">
<path d="M4738 9995 c-1 -1 -50 -5 -108 -9 -58 -4 -118 -9 -135 -11 -16 -3
-53 -7 -80 -9 -28 -3 -62 -7 -75 -10 -14 -3 -43 -8 -65 -10 -68 -7 -223 -36
-364 -68 -73 -16 -141 -31 -150 -33 -9 -2 -56 -15 -106 -30 -49 -14 -97 -28
-105 -30 -62 -14 -386 -131 -485 -174 -22 -10 -69 -31 -105 -47 -116 -51 -322
-156 -455 -232 -111 -63 -397 -248 -437 -281 -7 -6 -56 -43 -108 -82 -52 -40
-97 -75 -100 -78 -3 -4 -18 -17 -35 -30 -157 -120 -439 -396 -610 -596 -27
-32 -55 -63 -60 -69 -21 -23 -159 -200 -184 -235 -66 -95 -197 -288 -208 -306
-264 -432 -449 -851 -577 -1305 -37 -134 -82 -322 -91 -386 -3 -21 -8 -45 -11
-52 -6 -19 -42 -254 -49 -327 -4 -33 -8 -71 -11 -85 -25 -152 -25 -845 0
-1000 2 -14 7 -52 11 -85 9 -87 30 -225 50 -330 40 -214 103 -458 172 -665 28
-86 90 -255 103 -285 5 -11 37 -83 70 -160 72 -165 183 -381 270 -526 56 -93
201 -318 222 -344 4 -5 47 -62 95 -125 269 -357 598 -688 943 -948 52 -40 100
-76 105 -80 13 -10 254 -173 280 -189 342 -210 718 -387 1076 -506 119 -40
295 -91 347 -102 9 -2 53 -12 97 -23 44 -11 127 -30 185 -41 104 -20 124 -23
210 -36 77 -11 93 -13 150 -20 30 -4 69 -8 85 -10 212 -26 852 -26 1005 -1 14
3 52 7 85 11 33 3 69 8 80 10 11 2 40 7 65 10 25 3 56 7 70 9 14 3 43 7 64 11
22 3 111 21 198 40 608 133 1157 364 1689 710 74 48 136 90 139 94 3 4 27 23
55 42 27 18 55 39 62 44 7 6 18 15 25 20 160 125 185 146 202 160 6 6 56 51
111 100 143 128 358 346 435 442 29 35 115 138 120 143 3 3 36 46 73 95 37 50
70 95 75 100 24 30 182 264 182 269 0 4 5 12 10 19 54 62 281 500 367 707 77
185 156 404 178 490 2 8 17 62 33 120 86 306 147 657 169 966 15 214 9 695
-12 874 -3 19 -7 57 -10 84 -3 28 -8 59 -10 70 -2 12 -7 44 -10 71 -32 284
-192 874 -310 1140 -7 17 -30 71 -51 120 -75 179 -230 472 -367 690 -63 101
-223 328 -294 415 -347 432 -724 777 -1168 1072 -288 190 -654 380 -945 488
-47 17 -94 35 -105 40 -121 54 -560 175 -763 210 -30 5 -61 11 -70 14 -10 3
-39 8 -67 11 -27 4 -59 9 -70 11 -11 1 -40 5 -65 9 -25 3 -58 8 -75 10 -16 3
-66 7 -110 11 -44 3 -91 8 -105 11 -27 5 -636 13 -642 8z"/>
</g>
</svg>
